<?xml version="1.0" encoding="UTF-8"?><svg id="Layer_1" xmlns="http://www.w3.org/2000/svg" viewBox="0 0 3855.09 1055.19"><path d="M1684.92,580.99c7.41,104.22-22.91,216.33-62.02,268.98-33.63,45.28-48.72,50.19-101.77,53.96-56.4,4.01-67.01,3.32-107.82-42.19-42.21-47.06-79.69-155.92-86.69-254.47-6.08-85.56,10.42-159.04,36.82-216.82,33.1-72.43,53.68-73.41,117.51-77.95,61.82-4.4,86.42-10.47,124.53,49.15,35.12,54.93,73.12,130.42,79.44,219.35Z" fill="#000" stroke-width="0"/><path d="M1495.24,429.75c14.59,56.43,21.35,114.61,26.05,172.56,4.09,57.99,6.14,116.53.13,174.51-14.65-56.42-21.4-114.61-26.05-172.56-4.05-58-6.09-116.53-.12-174.51h0Z" fill="#fff" stroke-width="0"/><path d="M1374.99,713.97c-5.69-20.19-9.78-41.26-13.32-61.95-3.36-20.83-6.12-41.88-7.41-62.95-5.02-63.01,21.1-166.25,58.95-217.06,10.1-13.32,22.85-25.88,39.22-30.79-16.26,5.15-28.73,17.83-38.6,31.25-35.44,49.34-57.98,141.48-57.06,202.12,5.99,46.41,13.61,92.78,18.23,139.38h0Z" fill="#fff" stroke-width="0"/><path d="M1630.66,486.64c26.99,83.03,28.34,174.84,2.7,258.44-12.98,40.21-33.06,84.58-67.26,110.95-7.04,5.18-14.95,9.46-23.54,11.25,12.56-3.65,23.03-12.11,31.96-21.39,26.45-28.66,42.08-65.58,53.41-102.47,24.69-83.25,23.84-172.77,2.73-256.78h0Z" fill="#fff" stroke-width="0"/><path d="M897.43,641.86c-.14-1.79.07-3.59.6-5.3l6.02-19.41c-10.18,8.23-31.3,41.39-41.72,49.31-20.8,15.81-33.3,26.9-55.11,41.29-21.77,14.36-44.07,27.9-66.92,40.49-9.03,4.97-17.87,10.31-26.75,15.59.78,4.29,1.08,8.47,1.08,12.5,0,5.68-.59,11.1-1.47,16.35-1.78,10.5-4.66,20.37-7.86,30.06-.74-10.16-1.88-20.27-4.08-29.78-1.1-4.74-2.48-9.32-4.24-13.49-.69-1.65-1.45-3.23-2.25-4.73-5.03,2.78-10.11,5.46-15.28,7.95-16.24,7.82-33.04,14.38-51.24,12.78-16.68-.78-32.39-2.38-47.52-4.8-2.73,5.56-4.68,11.51-5.31,17.89-.41,4.11-.24,8.39.56,12.71.79,4.32,2.23,8.66,4.2,12.86-3.55-2.99-6.84-6.47-9.67-10.47-2.83-3.99-5.19-8.5-6.9-13.36-1.72-4.86-2.81-10.03-3.3-15.28-.26-2.74-.36-5.5-.33-8.26-64.64-14.19-120.92-45.11-199.8-96.01-59.98-163.72-77.25-385.24-27.31-596.28-27.31,498.42,91.01,606.07,91.01,606.07,2.2,1.65,5.23,2.72,7.68,3.99,5.75,2.99,11.52,5.96,17.32,8.84,12.04,5.99,24.21,11.7,36.52,17.1,23.19,10.16,46.88,18.93,70.95,26.79,17.33,5.66,35.33,12.74,53.45,15.37,25.02,3.79,49.51-3.34,72.2-13.54,24.56-11.04,48.27-25.43,71.16-39.54,25.91-15.98,50.58-33.78,73.67-53.63,11.16-9.59,21.98-19.57,32.59-29.77,5.66-5.44,11.25-10.95,16.8-16.5,4.5-4.5,12-10.01,14.38-16-7.54,3.19-19.03,15.49-27.81,13.88-6.63-1.21-1.69-17.33-.99-22.4,3.31-23.69,4.91-47.51,5.88-71.4,3.33-81.93-10.41-209.32-33.64-288.08-11.25-38.12-25.65-75.33-42.77-111.19-8.62-18.06-18.06-35.72-27.73-53.25-5.08-9.2-10.22-18.37-15.34-27.54-4.45-7.98-8.29-18.36-14.39-25.12-9.21,23.82-15.51,49.1-22.82,73.57-15.51,51.94-25.26,149.75-37.02,202.68-5.97,26.86-10.99,53.93-16.92,80.79-.81,3.67-.94,10.89-4.52,12.76-3.89,2.03-13-.19-17.25-.45-13.34-.8-26.68-1.64-40.01-2.55-7.16-.49-14.32-1-21.48-1.48-4.38-.3-12.13.74-16.02-1.4-4.38-2.41-6.63-10.69-8.8-15.02-3-5.99-6-11.99-9.01-17.97-11.82-23.53-23.68-47.05-36.15-70.25-24.41-45.4-50.89-89.69-79.32-132.69L327.11,0C230.83,264.34,121.09,399.23,1.91,443.34c-4.01,5.57-.82,9.54,1.63,15.46,54.57,55.22,160.19,276.28,124.43,361.66,143.06,35.86,285.55,67.69,447.21,234.42,136.64,6.83,275.46-99.19,335.69-235.56l-13.45-177.47Z" fill="#000" stroke-width="0"/><path d="M588.84,1024.15c-61.04-81.8-148.74-144.41-243.72-180.77-55.45-20.95-114.28-32.77-173.46-35.7,0,0-5.88-.3-5.88-.3l2.26-5.47c31.62-77.01-76.37-293.24-133.89-349.76,58.83-19.88,108.62-54.35,146.55-103.68,60.24-78.43,96.75-171.81,132.75-263.13-26.05,74.64-54.52,149.07-94.41,217.6-41.93,72.49-96.06,126.28-175.96,154.83,0,0,1.52-6.85,1.52-6.85,22.39,23.54,39.14,51.54,55.42,79.41,36.85,65.35,88.04,174.95,81.63,250.38-.89,8.24-2.62,16.54-5.94,24.42,0,0-3.62-5.77-3.62-5.77,122.55,6.23,242.48,53.76,334.93,134.61,30.6,26.76,59.03,56.43,81.81,90.17h0Z" fill="#fff" stroke-width="0"/><polygon points="171.41 796.19 258.26 744.79 175.76 802.91 171.41 796.19 171.41 796.19" fill="#fff" stroke-width="0"/><polygon points="48.73 453.69 147.31 480.21 46.95 461.49 48.73 453.69 48.73 453.69" fill="#fff" stroke-width="0"/><path d="M284.13,480.58c-11.58-20.67-17.2-44.09-21.44-67.22-5.29-31.03-6.04-62.71-3.67-94.06,3.97-62.3,16.97-124.28,34.92-183.97,0,0,7.05-22.31,7.05-22.31,0,0,.86.26.86.26-29.45,104.22-45.25,214.18-28.08,321.89,1.58,9.46,3.55,19.05,5.98,28.36,1.53,5.59,3.09,11.23,5.19,16.63,0,0-.8.42-.8.42h0Z" fill="#fff" stroke-width="0"/><path d="M693.55,683.17s19.65-9.94,68.27-55.74c27.31-25.73,10.24-132.92,10.24-132.92,0,0-78.51,57.89-78.51,188.67Z" fill="#fff" stroke="#fff" stroke-miterlimit="10" stroke-width="1.12"/><path d="M567.31,687.13s-21.04.57-67.13-35.83c-30.23-23.87-30.23-126.78-30.23-126.78,0,0,81.16,47.25,97.36,162.61Z" fill="#fff" stroke="#fff" stroke-miterlimit="10" stroke-width="1.12"/><line x1="669.5" y1="730.1" x2="660.09" y2="747.52" fill="#3d3d3d" stroke-width="0"/><path d="M669.5,730.1l-8.52,17.89c-.24.5-.84.71-1.33.47-.53-.25-.73-.92-.43-1.42,0,0,10.28-16.94,10.28-16.94h0Z" fill="#3d3d3d" stroke-width="0"/><line x1="603.7" y1="735.6" x2="614.37" y2="752.27" fill="#3d3d3d" stroke-width="0"/><path d="M603.7,735.6l11.51,16.13c.32.45.22,1.08-.23,1.4-.48.34-1.16.19-1.45-.32,0,0-9.82-17.21-9.82-17.21h0Z" fill="#3d3d3d" stroke-width="0"/><path d="M2175.29,778.93v-384.88c0-6.65-4.23-12.35-10.15-12.35h-141.97c-8.46,0-16.07,25.19-16.07,14.75l-17.52-117.33c0-9.5,7.61-18.05,16.07-18.05h27.57s377.05.81,377.05.81l13.49-.81c9.3,0,16.07,8.55,16.07,18.05l23.72,117.33c0,10.45-6.77-14.75-15.22-14.75h-154.62c-5.92,0-11,5.7-11,12.35v478.72c1.39,41.67,1.51,37.84-16.07,18.05" fill="#000" stroke-width="0"/><path d="M2908.8,381.71h-65.13c-8.46,0-16.07,7.6-16.07,18.05v172.87c0,7.6-.77,27.01,5.15,27.01,2.54,0,13.64-8.35,15.33-10.25,38.06-32.29,71.71-56.66,105.54-93.7,10.99-11.4,16.92-28.5,16.92-47.49,0-37.04-27.91-66.49-61.74-66.49Z" fill="#000" stroke-width="0"/><path d="M3431.46,872.77c.62,11.33,9.47,12.24,9.75,15.43s-1.65,2.12-11.22,2.61h-107.21c-8.46,0-16.07-8.55-16.07-18.05v-31.34c0-46.54-3.34-36.03-24.76-95.87l-33.98-93.06c-.85-.95-2.54-1.9-3.38-1.9-2.54,0-5.07,1.9-5.07,4.75l41.96,217.42c0,9.5-6.77,18.05-16.07,18.05h-130.09c-9.3,0,13.13-8.55,13.13-18.05l-83.93-593.65c0-10.45-22.43-18.05-13.13-18.05l201.26,35.58c5.92,0,10.99,2.85,13.53,7.6l44.09,317.64c1.69,1.9,3.38,2.85,5.07,2.85,2.54,0,5.08-1.9,5.08-5.7l29.2-339.93c0-10.45-21.59-18.05-13.13-18.05h151.92c6.52.07,15.19.6,12.22,1.22-6.95,1.44-10.68,10.45-10.75,16.83l-58.4,593.65Z" fill="#000" stroke-width="0"/><path d="M3772.51,683.26c-43.8-67.77-55.6-53.68-59.75-52.69-18.61,5.7-100.39,24.7-100.39,47.49l-11.13,80.74c0,5.7,5.07,11.4,10.15,11.4h157.56c5.92,0,10.15-54.68,10.15-48.03l23.72,156.77c0,9.5-6.77,11.89-16.07,11.89h-337.59c-5.92,0,19.05-5.7,19.05-11.4l76.64-602.2c0-9.5-23.28-16.15-15.67-16.15h325.53c5.92,0-58.27,242.07-58.27,248.72v6.02c0,5.7-6.97-117.71-12.89-117.71l-115.21-16.4c-9.3,0-16.92,7.6-16.92,18.05l-15.42,93.08c0,10.45,8.46,17.1,16.92,17.1l42.7.35c16.79,0,8.76,1.37,36.99.27,51.79-2.01,39.91,172.7,39.91,172.7Z" fill="#000" stroke-width="0"/><path d="M1852.45,496.15c3.24-92.43,35.13-149.75,104.08-199.56-166.02,42.76-237.48,167.9-241.8,291.37-5.57,159.26,119.22,311.38,277.22,318.36,82.51,3.64,150.76-53.93,178.33-90.71-13.64,1.33-5.11.47-40.61-1.1-158-6.97-282.79-159.1-277.22-318.36Z" fill="#000" stroke="#000" stroke-linejoin="round" stroke-width="15.46"/><path d="M3019.74,580.96c22.84,27.55,29.01,45.07,47.37,156.72l23.72,139.69c0,8.55-29.64-50.45-38.1-50.45l-78.66,65.58c-7.61,0-14.38-7.6-14.38-16.15v-155.77c-.85-24.69-6.77-43.69-17.76-56.99h-.85c-5.07-5.7-12.69-9.5-20.3-9.5-4.23,0-8.46.95-12.69,3.8-16.92,11.4-32.99,24.7-45.67,37.99-28.76,31.34-21.95,75.04-21.95,119.68v60.79c0,8.55-5.92,16.15-13.53,16.15h-94.31c-9.3,0,12.28-8.55,12.28-18.05l-59.31-571.83c0-9.5-7.01-15.4.6-15.4l214.27-24.47c21.14,0,41.44,4.75,60.05,12.35,21.99,9.5,41.44,23.75,57.51,42.74,30.45,33.24,49.06,80.74,49.06,132.03s-17.76,97.83-47.37,131.08Z" fill="#000" stroke-width="0"/><path d="M2943.19,477.26c12.83-33.86,3.52-70.79-20.41-82.23-23.93-11.44-53.67,6.82-66.51,40.69-10.42,27.5-6.51,56.9,8.14,73.1l-17.72,84.13,20.84-36.31.41-.72,20.03-34.9c21.31,2.07,44.4-15.24,55.21-43.75Z" fill="#fff" stroke-width="0"/><path d="M3026.63,342.97l-412.3,40.27c-5.69.82-23.81,26.9-25.12,16.54l70.72-89.93c.75-3.39,16.37-21.48,25.6-22.65l1.57,1.84" fill="#000" stroke-width="0"/><path d="M2281.81,264.08v-96.06l-91.35-83.63c-17.58-19.79-17.46-23.62-16.07,18.05v161.64h107.42Z" fill="#000" stroke-width="0"/><path d="M2767.43,852.73c-12.58-109.07-24.15-218.25-36.04-327.4-7.19-59.93-12.29-120.19-15.6-180.47-.25-4.05-.69-12.4-.87-16.46,0,0,4.28,3.03,4.28,3.03-15.56,3.2-32.53,6.42-48.13,9.11,0,0-.3-1.21-.3-1.21,3.88-1.29,7.76-2.57,11.65-3.8,12.13-3.93,26.55-8.25,38.8-11.92.84,5.84,2.06,14.59,2.83,20.47,11.53,81.57,17.29,163.79,23.85,245.85,7.28,87.53,14.16,175.1,20.77,262.68,0,0-1.25.12-1.25.12h0Z" fill="#fff" stroke-width="0"/><path d="M3004.19,562.69c43.21-76.01,47.11-163.26-19.3-227.09-19.66-19.31-43.69-33.34-69.33-43.8,0,0,.3-1.06.3-1.06,28.15,4.79,55.08,17.67,76.54,36.76,32.63,28.84,49.8,72.84,50.46,115.87.54,33.92-9.09,67.17-24.44,97.12-1.89,3.64-4.4,7.96-6.36,11.57-1.17,1.97-5.73,9.21-6.93,11.21,0,0-.94-.58-.94-.58h0Z" fill="#fff" stroke-width="0"/><path d="M3239.03,322.38c20.54,92.8,40.81,191.19,59.65,284.46,7.37,36.12,26.57,133.63,33.93,171.04,0,0-1.18-2.31-1.18-2.31,16.69,17.97,33.21,36.11,49.12,54.79,9.2,10.8,19.37,23.03,27.96,34.29-10.72-9.24-22.15-20.26-32.41-30.12-17.93-17.39-35.25-35.38-52.42-53.52-7.47-38.66-26.09-135.12-33.07-172.6-17.58-93.55-35.74-192.28-51.57-286.04h0Z" fill="#fff" stroke-width="0"/><path d="M3577.06,283.24c64.13-4.81,128.5-5.38,192.77-4.84,23.58.26,47.21.79,70.79,1.61,0,0-1.71,6.03-1.71,6.03-7.62,27.08-15.85,54.64-24.66,81.35-1.3,3.84-2.57,7.69-3.93,11.52,2.5-15.77,5.68-32.19,8.76-47.83,3.1-15.37,6.64-32.15,10.09-47.49,0,0,4.84,6.25,4.84,6.25-85.67,1.41-171.52.62-256.95-6.61h0Z" fill="#fff" stroke-width="0"/><path d="M3756.6,863.34c-35.99,3.9-72,4.06-108.08,3.29-36.07-1.07-72.03-3.07-107.77-8.85,35.99-3.93,72-4.08,108.08-3.29,36.07,1.09,72.03,3.1,107.77,8.85h0Z" fill="#fff" stroke-width="0"/><path d="M3576.11,636.48c15.63-9.43,32.67-15.52,50.09-20.4,11.48-3.1,23.39-4.19,35.11-6.06,18.34-3.12,36.68-6.25,55.07-9.08,8.93,7.2,18.62,15.08,27.51,22.41,0,0,8.65,7.23,8.65,7.23,0,0-1.07,1.54-1.07,1.54l-9.81-5.54c-9.52-5.42-19.81-11.48-29.2-16.98,0,0,3.65.7,3.65.7-17.06,5.19-34.19,10.05-51.32,14.98-11.37,3.39-22.58,7.56-34.27,9.73-11.75,2.16-23.61,3.52-35.61,3.88-6.05.14-12.13.13-18.38-.58,0,0-.42-1.83-.42-1.83h0Z" fill="#fff" stroke-width="0"/><path d="M2030.35,355.21c16.13-1.84,32.27-3.14,48.4-4.46,32.22.11,111.83.01,145.21.04,31.87,0,114.35,0,145.21,0,16.13,1.34,32.27,2.65,48.4,4.42-16.13,1.77-32.27,3.07-48.4,4.42-30.49,0-113.61,0-145.21,0-33.75.01-112.48-.05-145.21.04-16.14-1.32-32.27-2.62-48.4-4.46h0Z" fill="#fff" stroke-width="0"/><path d="M2256.29,176.73c7.26,90.64,2.86,228.55,3.53,320.67-1.12,92.47,2.34,229.53-5.31,320.64-7.13-90.65-2.93-228.55-3.53-320.67,1.19-92.47-2.47-229.54,5.31-320.64h0Z" fill="#fff" stroke-width="0"/><polygon points="693.89 707.64 693.55 676.86 699.52 677.38 693.89 707.64 693.89 707.64" fill="#fff" stroke-width="0"/><polygon points="570.54 713.91 561.43 684.54 567.31 683.33 570.54 713.91 570.54 713.91" fill="#fff" stroke-width="0"/><path d="M2658.22,429.88c9.29-.43,16.45,7.86,16.9,17.42l11.52,246.75c4.95,106.16-67.01,196.75-161.63,201.16l-15.21.71c-94.62,4.42-174.71-79.07-179.66-185.23l-11.52-246.76c-.45-9.57,5.91-18.49,15.2-18.92l133.52-6.23c8.45-.39-12.71,9.22-12.27,18.79l-18.05,239.51c1.03,22,11.19,38.21,26.63,48.77,18.12,12.39,28.98,12.85,40.87,12.05,38.82-2.61,77.24-25.4,75.14-70.35l-37.23-234.04c-.45-9.57-23.26-17.13-13.96-17.56l129.76-6.06Z" fill="#000" stroke-width="0"/><path d="M2347.13,752.09c-8.69-91.61-12.41-183.66-13.91-275.65,0-1.05-.18-20.02-.18-20.65,7.84-.27,18.25-.15,26.18-.3,8.03-.02,16.05-.04,24.08.08-15.69,1.75-32.19,3.25-47.93,4.57,0,0,2.09-2.29,2.09-2.29l1.32,18.36c5.91,91.81,9.62,183.86,8.34,275.88h0Z" fill="#fff" stroke-width="0"/><path d="M2525.04,884.34c51.43-8.38,93.18-35.48,119.95-80.35,15.13-24.84,25.65-55.88,29.3-83.19-4.08-77.31-8.09-162.43-10.61-239.83-.31-8.37-.84-25.87-1.05-34.29,0,0,1.31,17.1,1.31,17.1,6.02,83.23,11.26,173.41,15.5,256.75-1.13,10.36-3.52,20.28-6.28,30.25-21.06,72.65-71.03,124.73-148.11,133.56h0Z" fill="#fff" stroke-width="0"/><path d="M1928.24,314.63c-22.6,17.44-43.76,37.24-60.12,60.74-32.08,45.29-41.92,102.25-40.99,156.82,3.88,149.62,129.62,272.75,276.69,285.92,15.22,1.57,30.56,2.01,45.87,1.57,0,0,.02.63.02.62-15.33.64-30.71.4-46.01-.97-162.78-12.56-296.1-156.58-282.07-321.76,3.55-48.97,18.03-95.93,50.19-133.84,11.12-13.34,23.82-25.31,37.44-36.03,6.04-4.76,12.27-9.27,18.61-13.59l.37.51h0Z" fill="#fff" stroke-width="0"/><path d="M1241.09,886.43c.62,11.33,9.47,12.24,9.75,15.43s-1.65,2.12-11.22,2.61h-107.21c-8.46,0-16.07-8.55-16.07-18.05v-31.34c0-46.54-3.34-36.03-24.76-95.87l-33.98-93.06c-.85-.95-2.54-1.9-3.38-1.9-2.54,0-5.07,1.9-5.07,4.75l41.96,217.42c0,9.5-6.77,18.05-16.07,18.05h-130.09c-9.3,0,13.13-8.55,13.13-18.05l-83.93-593.65c0-10.45-22.43-18.05-13.13-18.05l201.26,35.58c5.92,0,10.99,2.85,13.53,7.6l44.09,317.64c1.69,1.9,3.38,2.85,5.07,2.85,2.54,0,5.08-1.9,5.08-5.7l29.2-339.93c0-10.45-21.59-18.05-13.13-18.05h151.92c6.52.07,15.19.6,12.22,1.22-6.95,1.44-10.68,10.45-10.75,16.83l-58.4,593.65Z" fill="#000" stroke-width="0"/><path d="M1048.66,336.03c20.54,92.8,40.81,191.19,59.65,284.46,7.37,36.12,26.57,133.63,33.93,171.04,0,0-1.18-2.31-1.18-2.31,16.69,17.97,33.2,36.11,49.12,54.79,9.2,10.8,19.37,23.03,27.96,34.29-10.72-9.24-22.15-20.26-32.41-30.12-17.93-17.39-35.25-35.38-52.42-53.52-7.47-38.66-26.09-135.12-33.07-172.6-17.58-93.55-35.74-192.28-51.57-286.04h0Z" fill="#fff" stroke-width="0"/><path d="M1566.23,877c-35.99,3.9-72,4.06-108.08,3.29-36.07-1.07-72.03-3.07-107.77-8.85,35.99-3.93,72-4.08,108.08-3.29,36.07,1.09,72.03,3.1,107.77,8.85h0Z" fill="#fff" stroke-width="0"/></svg>