<?xml version="1.0" encoding="UTF-8"?><svg id="Layer_2" xmlns="http://www.w3.org/2000/svg" viewBox="0 0 931.95 1146.08"><g id="Layer_1-2"><path d="M921.91,746.9c.08-1.9.52-3.78,1.29-5.52l8.74-19.71c-11.74,7.42-38.1,39.75-50.07,46.81-23.87,14.09-38.42,24.24-63.18,36.7-24.72,12.44-49.9,23.96-75.53,34.4-10.13,4.13-20.11,8.66-30.12,13.13.29,4.61.09,9.05-.41,13.3-.71,5.98-2,11.62-3.57,17.05-3.17,10.85-7.43,20.89-12,30.7.48-10.8.52-21.6-.62-31.89-.58-5.13-1.46-10.13-2.8-14.74-.52-1.82-1.12-3.58-1.79-5.26-5.64,2.31-11.33,4.5-17.09,6.49-18.08,6.24-36.59,11.07-55.58,7.14-17.49-2.88-33.84-6.51-49.49-10.94-3.56,5.52-6.36,11.55-7.81,18.19-.94,4.28-1.3,8.81-.99,13.46.3,4.65,1.28,9.4,2.83,14.07-3.37-3.59-6.41-7.66-8.9-12.22-2.49-4.55-4.42-9.6-5.62-14.93-1.22-5.33-1.72-10.92-1.59-16.52.06-2.92.3-5.84.67-8.74-66.37-22.94-121.85-62.48-198.69-125.88-42.97-179.94-33.79-415.53,44.92-631.76-90.39,521.87,20.99,649.95,20.99,649.95,2.11,2.01,5.18,3.51,7.59,5.16,5.69,3.87,11.4,7.7,17.16,11.46,11.94,7.8,24.06,15.32,36.37,22.53,23.19,13.58,47.07,25.74,71.45,37,17.56,8.1,35.66,17.8,54.43,22.8,25.9,7.09,52.59,2.6,77.76-5.35,27.25-8.6,54.01-20.83,79.88-32.88,29.28-13.64,57.48-29.35,84.26-47.41,12.94-8.73,25.59-17.91,38.02-27.34,6.64-5.04,13.21-10.15,19.75-15.31,5.3-4.19,13.88-9.07,17.13-15.08-8.34,2.43-21.97,13.97-31.02,11.19-6.84-2.1.36-18.48,1.73-23.73,6.42-24.56,11.05-49.46,15.02-74.52,13.64-85.92,14.91-221.87.15-307.74-7.14-41.56-17.72-82.55-31.33-122.46-6.86-20.1-14.62-39.88-22.64-59.54-4.21-10.32-8.5-20.62-12.76-30.92-3.71-8.96-6.47-20.37-12.06-28.25-12.65,23.96-22.41,49.83-33.14,74.71-22.77,52.81-45.13,154.69-64.06,209.01-9.61,27.57-18.24,55.47-27.82,83.05-1.31,3.77-2.34,11.36-6.34,12.89-4.35,1.66-13.68-1.81-18.12-2.6-13.96-2.5-27.91-5.02-41.85-7.63-7.48-1.4-14.97-2.82-22.45-4.22-4.58-.86-12.88-.72-16.71-3.45-4.32-3.08-5.67-12.08-7.42-16.91-2.42-6.69-4.84-13.37-7.27-20.06-9.55-26.26-19.14-52.51-29.42-78.5-20.11-50.86-42.54-100.81-67.18-149.64L400.23,0C266.1,266.67,133.78,395.25,2.73,427c-4.92,5.38-2.04,9.96-.2,16.5,50.68,64.93,134.67,310.95,86.43,396.51,146.33,55.47,292.55,106.63,442.31,302.31,143.15,24.09,302.55-70.48,382.88-206.74l7.76-188.68Z" fill="#000" stroke-width="0"/><path d="M549.46,1111.63c-54.13-93.82-138.81-170.7-234.41-220.8-55.85-28.97-116.41-48.72-178.43-59.13,0,0-5.8-.98-5.8-.98,0,0,2.88-5.17,2.88-5.17,3.87-6.94,6.44-14.72,8.19-22.69,15.05-76.58-25.05-196.59-54.84-268.52-14.2-32.62-28.95-65.8-51-93.89,64.27-13.68,121.05-43.98,166.96-91.17,73.16-75.24,123.13-169.18,172.28-261.03-36.75,75.4-75.99,150.28-126.53,217.54-53.15,71.14-116.81,121.09-204.49,141.27,0,0,2.31-6.62,2.31-6.62,20.66,27.56,34.84,59.12,48.54,90.48,30.73,73.37,71.12,195.14,55.07,273.78-1.95,8.56-4.79,17.06-9.24,24.94,0,0-2.92-6.15-2.92-6.15,128.34,21.69,248.82,86.54,336.29,183.07,28.95,31.96,55.27,66.71,75.14,105.07h0Z" fill="#fff" stroke-width="0"/><polygon points="137.85 820.02 235.62 776.37 141.38 827.2 137.85 820.02 137.85 820.02" fill="#fff" stroke-width="0"/><polygon points="50.71 443.94 151.4 483.84 48.04 451.48 50.71 443.94 50.71 443.94" fill="#fff" stroke-width="0"/><path d="M295.56,501.12c-6.49-15.39-9.63-32.05-11.84-48.53-5.31-41.42-2.36-83.59,5.52-124.48,11.82-65.16,33.14-128.88,59.35-189.57,0,0,10.16-22.65,10.16-22.65,0,0,.82.36.82.36-43.99,106.15-74.55,220.12-69.55,335.78.52,10.17,1.44,20.52,2.88,30.63.94,6.08,1.91,12.21,3.49,18.16,0,0-.84.32-.84.32h0Z" fill="#fff" stroke-width="0"/><path d="M701.95,765.24s21.94-8.04,78.84-50.3c31.96-23.74,27.22-138.81,27.22-138.81,0,0-89.9,51.3-106.06,189.12Z" fill="#fff" stroke="#fff" stroke-miterlimit="10" stroke-width="1.12"/><path d="M568.43,753.81s-22.24-2.01-66.31-46.06c-28.9-28.89-16.18-137.34-16.18-137.34,0,0,79.69,59.82,82.5,183.4Z" fill="#fff" stroke="#fff" stroke-miterlimit="10" stroke-width="1.12"/><line x1="670.81" y1="811.73" x2="658.75" y2="828.92" fill="#3e3e3e" stroke-width="0"/><path d="M670.81,811.73l-11.24,17.77c-.3.47-.91.61-1.38.31-.5-.31-.62-1-.26-1.46,0,0,12.88-16.62,12.88-16.62h0Z" fill="#3e3e3e" stroke-width="0"/><line x1="600.79" y1="809.38" x2="609.97" y2="828.27" fill="#3e3e3e" stroke-width="0"/><path d="M600.79,809.38l10.08,18.45c.27.49.09,1.09-.4,1.36-.51.28-1.17.06-1.4-.48,0,0-8.28-19.32-8.28-19.32h0Z" fill="#3e3e3e" stroke-width="0"/><polygon points="699.29 791.07 702.91 758.62 708.79 759.83 699.29 791.07 699.29 791.07" fill="#fff" stroke-width="0"/><polygon points="568.52 782.42 562.74 750.34 568.72 749.82 568.52 782.42 568.52 782.42" fill="#fff" stroke-width="0"/></g></svg>